<mxfile host="app.diagrams.net" modified="2022-05-27T16:23:11.849Z" agent="5.0 (Macintosh; Intel Mac OS X 10_15_7) AppleWebKit/605.1.15 (KHTML, like Gecko) Version/15.5 Safari/605.1.15" etag="jnwkLtTmY4HZZqtkDiXg" version="18.0.6" type="github">
  <diagram id="U-rMDATJZxB5pWnJridc" name="Page-1">
    <mxGraphModel dx="1113" dy="669" grid="1" gridSize="10" guides="1" tooltips="1" connect="1" arrows="1" fold="1" page="1" pageScale="1" pageWidth="827" pageHeight="1169" math="0" shadow="0">
      <root>
        <mxCell id="0" />
        <mxCell id="1" parent="0" />
        <mxCell id="sIlboj2o6dc9_SKdIrM2-3" value="" style="edgeStyle=orthogonalEdgeStyle;rounded=0;orthogonalLoop=1;jettySize=auto;html=1;" edge="1" parent="1" source="sIlboj2o6dc9_SKdIrM2-1" target="sIlboj2o6dc9_SKdIrM2-2">
          <mxGeometry relative="1" as="geometry" />
        </mxCell>
        <mxCell id="sIlboj2o6dc9_SKdIrM2-1" value="Start&amp;nbsp;" style="ellipse;whiteSpace=wrap;html=1;" vertex="1" parent="1">
          <mxGeometry x="354" y="10" width="120" height="80" as="geometry" />
        </mxCell>
        <mxCell id="sIlboj2o6dc9_SKdIrM2-5" value="" style="edgeStyle=orthogonalEdgeStyle;rounded=0;orthogonalLoop=1;jettySize=auto;html=1;" edge="1" parent="1" source="sIlboj2o6dc9_SKdIrM2-2" target="sIlboj2o6dc9_SKdIrM2-4">
          <mxGeometry relative="1" as="geometry" />
        </mxCell>
        <mxCell id="sIlboj2o6dc9_SKdIrM2-2" value="numbers = &amp;nbsp;[1, 8, 3, 8, 2, 6, 8, 8]&lt;br&gt;index = 0&lt;br&gt;maximum = numbers[index]&lt;br&gt;count_maximal = 0" style="whiteSpace=wrap;html=1;" vertex="1" parent="1">
          <mxGeometry x="322" y="120" width="184" height="60" as="geometry" />
        </mxCell>
        <mxCell id="sIlboj2o6dc9_SKdIrM2-7" value="" style="edgeStyle=orthogonalEdgeStyle;rounded=0;orthogonalLoop=1;jettySize=auto;html=1;" edge="1" parent="1" source="sIlboj2o6dc9_SKdIrM2-4" target="sIlboj2o6dc9_SKdIrM2-6">
          <mxGeometry relative="1" as="geometry" />
        </mxCell>
        <mxCell id="sIlboj2o6dc9_SKdIrM2-11" value="" style="edgeStyle=orthogonalEdgeStyle;rounded=0;orthogonalLoop=1;jettySize=auto;html=1;" edge="1" parent="1" source="sIlboj2o6dc9_SKdIrM2-4" target="sIlboj2o6dc9_SKdIrM2-10">
          <mxGeometry relative="1" as="geometry" />
        </mxCell>
        <mxCell id="sIlboj2o6dc9_SKdIrM2-4" value="index &amp;lt; numbers.length" style="rhombus;whiteSpace=wrap;html=1;" vertex="1" parent="1">
          <mxGeometry x="357" y="210" width="114" height="110" as="geometry" />
        </mxCell>
        <mxCell id="sIlboj2o6dc9_SKdIrM2-9" value="" style="edgeStyle=orthogonalEdgeStyle;rounded=0;orthogonalLoop=1;jettySize=auto;html=1;" edge="1" parent="1" source="sIlboj2o6dc9_SKdIrM2-6" target="sIlboj2o6dc9_SKdIrM2-8">
          <mxGeometry relative="1" as="geometry" />
        </mxCell>
        <mxCell id="sIlboj2o6dc9_SKdIrM2-6" value="count_maximal" style="shape=document;whiteSpace=wrap;html=1;boundedLbl=1;" vertex="1" parent="1">
          <mxGeometry x="548" y="225" width="120" height="80" as="geometry" />
        </mxCell>
        <mxCell id="sIlboj2o6dc9_SKdIrM2-8" value="End" style="ellipse;whiteSpace=wrap;html=1;" vertex="1" parent="1">
          <mxGeometry x="690" y="235" width="120" height="60" as="geometry" />
        </mxCell>
        <mxCell id="sIlboj2o6dc9_SKdIrM2-13" value="" style="edgeStyle=orthogonalEdgeStyle;rounded=0;orthogonalLoop=1;jettySize=auto;html=1;" edge="1" parent="1" source="sIlboj2o6dc9_SKdIrM2-10" target="sIlboj2o6dc9_SKdIrM2-12">
          <mxGeometry relative="1" as="geometry" />
        </mxCell>
        <mxCell id="sIlboj2o6dc9_SKdIrM2-17" value="" style="edgeStyle=orthogonalEdgeStyle;rounded=0;orthogonalLoop=1;jettySize=auto;html=1;" edge="1" parent="1" source="sIlboj2o6dc9_SKdIrM2-10" target="sIlboj2o6dc9_SKdIrM2-16">
          <mxGeometry relative="1" as="geometry" />
        </mxCell>
        <mxCell id="sIlboj2o6dc9_SKdIrM2-10" value="numbers[index] &amp;gt; maximum" style="rhombus;whiteSpace=wrap;html=1;" vertex="1" parent="1">
          <mxGeometry x="357" y="350" width="114" height="100" as="geometry" />
        </mxCell>
        <mxCell id="sIlboj2o6dc9_SKdIrM2-22" value="" style="edgeStyle=orthogonalEdgeStyle;rounded=0;orthogonalLoop=1;jettySize=auto;html=1;" edge="1" parent="1" source="sIlboj2o6dc9_SKdIrM2-12" target="sIlboj2o6dc9_SKdIrM2-21">
          <mxGeometry relative="1" as="geometry" />
        </mxCell>
        <mxCell id="sIlboj2o6dc9_SKdIrM2-12" value="maximum = numbers[index]&lt;br&gt;count_maximal = 1" style="whiteSpace=wrap;html=1;" vertex="1" parent="1">
          <mxGeometry x="354" y="550" width="120" height="60" as="geometry" />
        </mxCell>
        <mxCell id="sIlboj2o6dc9_SKdIrM2-15" value="Yes" style="text;html=1;align=center;verticalAlign=middle;resizable=0;points=[];autosize=1;strokeColor=none;fillColor=none;" vertex="1" parent="1">
          <mxGeometry x="370" y="460" width="40" height="20" as="geometry" />
        </mxCell>
        <mxCell id="sIlboj2o6dc9_SKdIrM2-20" value="" style="edgeStyle=orthogonalEdgeStyle;rounded=0;orthogonalLoop=1;jettySize=auto;html=1;" edge="1" parent="1" source="sIlboj2o6dc9_SKdIrM2-16" target="sIlboj2o6dc9_SKdIrM2-19">
          <mxGeometry relative="1" as="geometry" />
        </mxCell>
        <mxCell id="sIlboj2o6dc9_SKdIrM2-28" style="edgeStyle=orthogonalEdgeStyle;rounded=0;orthogonalLoop=1;jettySize=auto;html=1;" edge="1" parent="1" source="sIlboj2o6dc9_SKdIrM2-16">
          <mxGeometry relative="1" as="geometry">
            <mxPoint x="634" y="630" as="targetPoint" />
            <Array as="points">
              <mxPoint x="730" y="400" />
              <mxPoint x="730" y="630" />
            </Array>
          </mxGeometry>
        </mxCell>
        <mxCell id="sIlboj2o6dc9_SKdIrM2-16" value="&lt;span style=&quot;&quot;&gt;numbers[index] ==maximum&lt;/span&gt;" style="rhombus;whiteSpace=wrap;html=1;" vertex="1" parent="1">
          <mxGeometry x="568" y="360" width="132" height="80" as="geometry" />
        </mxCell>
        <mxCell id="sIlboj2o6dc9_SKdIrM2-18" value="No" style="text;html=1;align=center;verticalAlign=middle;resizable=0;points=[];autosize=1;strokeColor=none;fillColor=none;" vertex="1" parent="1">
          <mxGeometry x="495" y="370" width="30" height="20" as="geometry" />
        </mxCell>
        <mxCell id="sIlboj2o6dc9_SKdIrM2-24" style="edgeStyle=orthogonalEdgeStyle;rounded=0;orthogonalLoop=1;jettySize=auto;html=1;entryX=0.5;entryY=1;entryDx=0;entryDy=0;" edge="1" parent="1" source="sIlboj2o6dc9_SKdIrM2-19" target="sIlboj2o6dc9_SKdIrM2-21">
          <mxGeometry relative="1" as="geometry">
            <Array as="points">
              <mxPoint x="634" y="630" />
              <mxPoint x="250" y="630" />
            </Array>
          </mxGeometry>
        </mxCell>
        <mxCell id="sIlboj2o6dc9_SKdIrM2-19" value="count _maximal = count_maximal + 1" style="whiteSpace=wrap;html=1;" vertex="1" parent="1">
          <mxGeometry x="574" y="550" width="120" height="60" as="geometry" />
        </mxCell>
        <mxCell id="sIlboj2o6dc9_SKdIrM2-23" style="edgeStyle=orthogonalEdgeStyle;rounded=0;orthogonalLoop=1;jettySize=auto;html=1;entryX=0;entryY=0.5;entryDx=0;entryDy=0;" edge="1" parent="1" source="sIlboj2o6dc9_SKdIrM2-21" target="sIlboj2o6dc9_SKdIrM2-10">
          <mxGeometry relative="1" as="geometry">
            <Array as="points">
              <mxPoint x="250" y="400" />
            </Array>
          </mxGeometry>
        </mxCell>
        <mxCell id="sIlboj2o6dc9_SKdIrM2-21" value="index= index + 1" style="whiteSpace=wrap;html=1;" vertex="1" parent="1">
          <mxGeometry x="190" y="550" width="120" height="60" as="geometry" />
        </mxCell>
        <mxCell id="sIlboj2o6dc9_SKdIrM2-27" value="Yes" style="text;html=1;align=center;verticalAlign=middle;resizable=0;points=[];autosize=1;strokeColor=none;fillColor=none;" vertex="1" parent="1">
          <mxGeometry x="590" y="470" width="40" height="20" as="geometry" />
        </mxCell>
        <mxCell id="sIlboj2o6dc9_SKdIrM2-29" value="No" style="text;html=1;align=center;verticalAlign=middle;resizable=0;points=[];autosize=1;strokeColor=none;fillColor=none;" vertex="1" parent="1">
          <mxGeometry x="705" y="380" width="30" height="20" as="geometry" />
        </mxCell>
      </root>
    </mxGraphModel>
  </diagram>
</mxfile>
